<?xml version="1.0" encoding="utf-8"?>
<!-- Generator: Adobe Illustrator 26.3.1, SVG Export Plug-In . SVG Version: 6.00 Build 0)  -->
<svg version="1.1" id="图层_1" xmlns="http://www.w3.org/2000/svg" xmlns:xlink="http://www.w3.org/1999/xlink" x="0px" y="0px"
	 viewBox="0 0 283.5 283.5" style="enable-background:new 0 0 283.5 283.5;" xml:space="preserve">
<style type="text/css">
	.st0{fill:#9D0A12;}
</style>
<g>
	<path class="st0" d="M141.7,0C63.6,0,0,63.6,0,141.7c0,78.2,63.6,141.7,141.7,141.7c78.2,0,141.7-63.6,141.7-141.7
		C283.5,63.6,219.9,0,141.7,0 M141.7,278.9c-75.6,0-137.2-61.5-137.2-137.2C4.6,66.1,66.1,4.6,141.7,4.6
		c75.6,0,137.2,61.5,137.2,137.2C278.9,217.4,217.4,278.9,141.7,278.9"/>
	<polygon class="st0" points="250.1,142.2 249.8,146 256,150.3 249.3,153.6 249,157.5 258.9,152.2 265.8,152.8 266,149.5 259.2,149 
			"/>
	<polygon class="st0" points="251.4,159.1 248.7,158.5 245.9,171.2 248.6,171.8 249.7,167.1 263,170 263.7,166.8 250.4,163.8 	"/>
	<polygon class="st0" points="244,176.7 259.6,181.8 260.6,178.7 245,173.6 	"/>
	<path class="st0" d="M253.7,184.7c-0.9-0.4-1.8-0.6-2.6-0.5c-0.8,0.1-1.6,0.4-2.3,1c-0.7,0.5-1.5,1.5-2.5,2.8
		c-1,1.3-1.8,2.1-2.2,2.3c-0.4,0.2-0.8,0.2-1.1,0c-0.4-0.2-0.6-0.5-0.7-0.9c-0.1-0.7,0-1.4,0.4-2.3c0.4-0.8,0.8-1.4,1.4-1.7
		c0.5-0.3,1.2-0.3,2-0.1l1.2-3.1c-1.4-0.6-2.7-0.6-4,0c-1.2,0.6-2.3,1.8-3.1,3.7c-0.5,1.2-0.8,2.2-0.8,3.2c0,1,0.2,1.8,0.7,2.6
		c0.5,0.7,1.1,1.3,1.8,1.6c1.2,0.5,2.4,0.5,3.6,0c0.9-0.4,1.9-1.3,3-2.7c0.9-1.1,1.5-1.8,1.7-2.1c0.4-0.4,0.8-0.7,1.1-0.8
		c0.3-0.1,0.7-0.1,1,0.1c0.5,0.2,0.9,0.7,1.1,1.4c0.2,0.7,0.1,1.5-0.4,2.5c-0.4,0.9-1,1.5-1.7,1.9c-0.7,0.3-1.6,0.4-2.7,0.1l-1,3.1
		c1.8,0.6,3.3,0.5,4.6-0.1c1.3-0.6,2.4-1.9,3.3-3.8c0.6-1.3,0.9-2.5,0.9-3.5c0-1-0.2-2-0.8-2.8C255.2,185.6,254.5,185,253.7,184.7"
		/>
	<path class="st0" d="M243.7,202.4c-0.7,0.1-1.4,0.4-2.1,0.7c0.6-1.3,0.8-2.5,0.5-3.5c-0.3-1-0.9-1.9-2-2.6
		c-0.8-0.5-1.7-0.8-2.6-0.8c-0.9,0-1.7,0.2-2.4,0.7c-0.7,0.5-1.5,1.5-2.5,3l-3.8,5.9l13.8,8.9l1.8-2.8l-5.7-3.7l0.4-0.6
		c0.4-0.6,0.8-1.1,1.1-1.3c0.3-0.2,0.7-0.4,1.1-0.5c0.4-0.1,1.4-0.1,3-0.1l4.3-0.1l2.2-3.3l-3.8-0.1
		C245.5,202.2,244.4,202.3,243.7,202.4 M239.4,202.1c-0.1,0.4-0.6,1.3-1.4,2.6l-1.3,2.1l-3.5-2.3l1.4-2.2c0.7-1.1,1.2-1.8,1.4-2
		c0.4-0.4,0.8-0.6,1.2-0.7c0.5-0.1,0.9,0.1,1.4,0.4c0.4,0.3,0.7,0.6,0.9,0.9C239.4,201.3,239.5,201.7,239.4,202.1"/>
	<polygon class="st0" points="231,224.4 227.7,221.4 233.1,215.3 231.1,213.4 225.6,219.6 222.9,217.2 228.8,210.5 226.7,208.7 
		218.6,217.8 230.9,228.7 239.1,219.4 237.1,217.5 	"/>
	<polygon class="st0" points="214.5,221.7 219.2,233.5 208.2,226.9 205.5,229.2 220.5,238 223.2,235.7 217.1,219.4 	"/>
	
		<rect x="205.2" y="229.8" transform="matrix(0.8283 -0.5602 0.5602 0.8283 -97.8043 156.7236)" class="st0" width="3.3" height="16.4"/>
	<polygon class="st0" points="194.9,235.8 200,245.5 188.9,238.9 186.1,240.4 193.7,254.9 196.4,253.5 191.5,244 202.3,250.4 
		205.2,248.9 197.6,234.4 	"/>
	<path class="st0" d="M182.4,242l-3.1,1.1l2.9,8.6c0.4,1.2,0.7,2.1,0.8,2.7c0.1,0.6,0,1.1-0.4,1.6c-0.3,0.5-0.9,0.9-1.8,1.2
		c-0.9,0.3-1.6,0.3-2.3,0.1c-0.6-0.2-1.1-0.6-1.5-1.2c-0.2-0.4-0.5-1.2-1-2.6l-2.8-8.4l-3.1,1.1l2.8,8.3c0.6,1.7,1.1,3,1.6,3.8
		c0.3,0.5,0.8,1,1.5,1.4c0.6,0.4,1.4,0.6,2.3,0.7c0.9,0.1,2.1-0.1,3.5-0.6c1.2-0.4,2.2-0.9,2.8-1.5c0.7-0.6,1.1-1.2,1.4-1.9
		c0.3-0.7,0.4-1.4,0.3-2.3c-0.1-0.8-0.5-2.2-1.1-4L182.4,242z"/>
	<polygon class="st0" points="156,248.8 156.7,255.2 150.2,255.9 149.6,249.5 146.3,249.8 148,266.1 151.2,265.8 150.5,258.6 
		157,258 157.7,265.1 161,264.8 159.3,248.5 	"/>
	<path class="st0" d="M133,253.3c0.8-0.8,1.8-1.2,3-1.1c0.9,0,1.6,0.3,2.2,0.9c0.6,0.5,1,1.2,1.1,2.1l3.3-0.6
		c-0.3-1.3-0.8-2.4-1.5-3.1c-1.2-1.2-2.8-1.9-4.8-2c-2.3-0.1-4.2,0.5-5.7,2c-1.5,1.4-2.3,3.5-2.4,6.2c-0.1,2.6,0.4,4.6,1.8,6.2
		c1.3,1.6,3.1,2.4,5.2,2.5c1.8,0.1,3.2-0.3,4.4-1.1c1.2-0.8,2.1-2.1,2.7-3.9l-3.1-1.2c-0.3,1.2-0.8,2-1.5,2.6
		c-0.7,0.5-1.4,0.8-2.3,0.7c-1.2-0.1-2.1-0.5-2.8-1.5c-0.7-0.9-1-2.4-0.9-4.5C131.7,255.5,132.2,254.1,133,253.3"/>
	<polygon class="st0" points="110.3,262.3 122.6,264.8 123.1,262.1 114.2,260.2 115.1,255.9 123.1,257.5 123.7,254.8 115.6,253.2 
		116.4,249.6 125,251.4 125.6,248.7 113.7,246.2 	"/>
	<polygon class="st0" points="98.8,241.1 97.9,243.7 102.5,245.4 97.8,258.2 101,259.3 105.6,246.5 110.1,248.1 111.1,245.5 	"/>
	
		<rect x="83.3" y="244.9" transform="matrix(0.4316 -0.9021 0.9021 0.4316 -170.3864 222.6925)" class="st0" width="16.4" height="3.3"/>
	<path class="st0" d="M68.8,242.9l3,1.9l3.1-2.4l5.6,3.5l-0.8,3.9l3.1,1.9l3.1-17.4l-3-1.9L68.8,242.9z M81,242.9l-3.8-2.4l5.1-4
		L81,242.9z"/>
	<polygon class="st0" points="73.2,225.4 69,230.2 64.1,226 68.3,221.1 65.8,219 55.1,231.3 57.6,233.5 62.3,228.1 67.2,232.3 
		62.5,237.7 65,239.9 75.7,227.5 	"/>
	<path class="st0" d="M52.8,215.8l-2.1,1.8l2.4,2.9l-1.6,1.3c-0.6-0.1-1.3-0.4-1.9-0.7c-0.7-0.4-1.2-0.8-1.6-1.3
		c-0.9-1.1-1.2-2.3-1.1-3.5c0.2-1.3,1-2.5,2.5-3.8c1.4-1.2,2.7-1.7,4-1.6c1.3,0.1,2.3,0.7,3.3,1.8c0.6,0.7,0.9,1.5,1,2.3
		c0.1,0.8-0.2,1.5-0.6,2.2l2.6,2.1c1-1.2,1.4-2.5,1.3-4c-0.1-1.4-0.8-2.9-2.1-4.5c-1-1.2-2-2-3.1-2.5c-1.4-0.6-2.9-0.8-4.4-0.5
		c-1.5,0.3-2.9,1-4.2,2.1c-1.2,1-2.1,2.2-2.7,3.5c-0.6,1.4-0.8,2.7-0.5,4.2c0.3,1.4,0.9,2.8,2,4.1c0.9,1,1.9,1.9,3.1,2.6
		c1.2,0.7,2.3,1.1,3.3,1.2l5-4.2L52.8,215.8z"/>
	<polygon class="st0" points="50,199 40.5,204.6 46.6,193.3 44.9,190.5 30.8,198.8 32.4,201.4 41.6,196 35.7,207.1 37.4,210 
		51.5,201.7 	"/>
	<path class="st0" d="M40.2,179.1l-17.6,0l1.3,3.3l4-0.1l2.4,6.1l-2.9,2.7l1.3,3.4l12.9-12.1L40.2,179.1z M32.4,186.4l-1.6-4.2
		l6.5-0.1L32.4,186.4z"/>
	<polygon class="st0" points="36.6,167.7 30.3,169 28.9,162.7 35.2,161.3 34.5,158.1 18.5,161.6 19.2,164.8 26.2,163.3 27.6,169.6 
		20.6,171.1 21.3,174.4 37.3,170.9 	"/>
	<path class="st0" d="M19.8,154.9c0.8,0.5,1.7,0.7,2.7,0.6c1-0.1,1.9-0.3,2.6-0.8c0.7-0.5,1.2-1.1,1.5-1.9c0.4-0.8,0.7-2,1-3.6
		c0.3-1.6,0.6-2.7,0.9-3.1c0.3-0.3,0.6-0.5,1-0.6c0.4,0,0.8,0.1,1,0.5c0.4,0.5,0.7,1.3,0.7,2.2c0.1,0.9-0.1,1.6-0.4,2.1
		c-0.3,0.5-0.9,0.8-1.8,1l0.3,3.3c1.5-0.2,2.7-0.8,3.5-1.9c0.8-1.1,1.2-2.7,1.1-4.7c-0.1-1.3-0.3-2.3-0.8-3.2
		c-0.4-0.9-1-1.5-1.8-1.9c-0.8-0.4-1.5-0.6-2.4-0.6c-1.3,0.1-2.4,0.6-3.2,1.7c-0.6,0.8-1.1,2-1.4,3.8c-0.3,1.4-0.4,2.3-0.6,2.7
		c-0.2,0.6-0.4,1-0.6,1.2s-0.6,0.4-1,0.4c-0.6,0-1.1-0.2-1.6-0.7c-0.5-0.5-0.8-1.3-0.8-2.4c-0.1-1,0.1-1.8,0.6-2.4
		c0.5-0.6,1.2-1.1,2.3-1.3l-0.5-3.2c-1.8,0.3-3.2,1.1-4.1,2.2c-0.9,1.2-1.3,2.8-1.1,4.8c0.1,1.4,0.4,2.6,0.8,3.5
		C18.3,153.7,19,154.4,19.8,154.9"/>
	<rect x="101.4" y="157.9" class="st0" width="2.3" height="15.1"/>
	<rect x="106.3" y="153.7" class="st0" width="2.3" height="16.8"/>
	<rect x="116.1" y="148" class="st0" width="2.3" height="18.1"/>
	<rect x="111.2" y="150.7" class="st0" width="2.3" height="17.5"/>
	<rect x="121" y="146" class="st0" width="2.3" height="18.7"/>
	<rect x="125.9" y="144.4" class="st0" width="2.3" height="19"/>
	<rect x="96.5" y="162.6" class="st0" width="2.3" height="13.5"/>
	<rect x="91.6" y="169.2" class="st0" width="2.3" height="10.4"/>
	<rect x="86.7" y="176" class="st0" width="2.3" height="7.5"/>
	<rect x="81.8" y="181.5" class="st0" width="2.3" height="5.2"/>
	<rect x="76.9" y="185.6" class="st0" width="2.3" height="3.8"/>
	<rect x="72" y="189.1" class="st0" width="2.3" height="2.8"/>
	<rect x="179.8" y="157.9" class="st0" width="2.3" height="15.1"/>
	<rect x="174.9" y="153.7" class="st0" width="2.3" height="16.8"/>
	<rect x="165.1" y="148" class="st0" width="2.3" height="18.1"/>
	<rect x="170" y="150.7" class="st0" width="2.3" height="17.5"/>
	<rect x="160.2" y="146" class="st0" width="2.3" height="18.7"/>
	<rect x="155.3" y="144.4" class="st0" width="2.3" height="19"/>
	<rect x="184.7" y="162.6" class="st0" width="2.3" height="13.5"/>
	<rect x="189.6" y="169.2" class="st0" width="2.3" height="10.4"/>
	<rect x="194.5" y="176" class="st0" width="2.3" height="7.5"/>
	<rect x="199.4" y="181.5" class="st0" width="2.3" height="5.2"/>
	<rect x="204.3" y="185.6" class="st0" width="2.3" height="3.8"/>
	<rect x="209.2" y="189.1" class="st0" width="2.3" height="2.8"/>
	<path class="st0" d="M126.5,218.6c0.8-0.7,1.3-1.3,1.6-1.7c0.5-0.6,0.8-1.1,1-1.7c0.2-0.5,0.3-1.1,0.3-1.7c0-1-0.4-1.9-1.1-2.6
		c-0.7-0.7-1.7-1-3-1c-1.2,0-2.2,0.3-2.9,0.9c-0.8,0.6-1.3,1.6-1.4,3l2.5,0.2c0-0.7,0.2-1.2,0.5-1.6c0.3-0.3,0.7-0.5,1.2-0.5
		c0.5,0,0.9,0.1,1.2,0.5c0.3,0.3,0.4,0.7,0.4,1.3c0,0.5-0.2,1-0.5,1.5c-0.3,0.4-0.9,1.1-2.1,2.1c-1.4,1.3-2.3,2.3-2.8,3.1
		c-0.5,0.8-0.8,1.6-0.9,2.5h8.8v-2.3h-5c0.1-0.2,0.3-0.5,0.5-0.7C125.2,219.8,125.7,219.3,126.5,218.6"/>
	<path class="st0" d="M137.3,209.9c-1.3,0-2.2,0.4-3,1.3c-0.9,1.1-1.3,2.9-1.3,5.3c0,2.5,0.4,4.2,1.2,5.2c0.8,1,1.8,1.5,3.1,1.5
		c1.3,0,2.2-0.4,3-1.3c0.9-1.1,1.3-2.9,1.3-5.3c0-2.5-0.4-4.2-1.3-5.3C139.5,210.4,138.5,209.9,137.3,209.9 M138.6,219.9
		c-0.1,0.5-0.3,0.8-0.6,1c-0.2,0.2-0.5,0.3-0.8,0.3c-0.3,0-0.6-0.1-0.8-0.3c-0.2-0.2-0.4-0.6-0.6-1.1c-0.2-0.6-0.2-1.6-0.2-3.2
		c0-1.5,0.1-2.6,0.3-3.3c0.1-0.5,0.3-0.8,0.6-1c0.2-0.2,0.5-0.3,0.8-0.3c0.3,0,0.6,0.1,0.8,0.3c0.2,0.2,0.4,0.6,0.6,1.1
		c0.2,0.6,0.2,1.6,0.2,3.1C138.9,218.1,138.8,219.2,138.6,219.9"/>
	<path class="st0" d="M146.7,212c-0.8,0.6-1.5,1-2.1,1.2v2.3c1.2-0.4,2.3-1,3.2-1.9v9.4h2.5v-13.1h-2
		C148,210.7,147.5,211.4,146.7,212"/>
	<path class="st0" d="M160.3,216c1.3-0.7,1.9-1.6,1.9-2.7c0-0.8-0.3-1.5-0.9-2.2c-0.7-0.8-1.7-1.2-3-1.2c-0.7,0-1.4,0.1-1.9,0.4
		c-0.6,0.3-1,0.6-1.3,1.1c-0.3,0.5-0.6,1.1-0.7,1.9l2.3,0.4c0.1-0.6,0.2-1,0.6-1.3c0.3-0.3,0.7-0.4,1.1-0.4c0.4,0,0.8,0.1,1,0.4
		c0.3,0.3,0.4,0.6,0.4,1.1c0,0.5-0.2,0.9-0.5,1.2c-0.4,0.3-0.9,0.5-1.6,0.4l-0.3,2c0.4-0.1,0.8-0.2,1.1-0.2c0.5,0,0.9,0.2,1.2,0.6
		c0.3,0.4,0.5,0.9,0.5,1.5c0,0.7-0.2,1.2-0.5,1.6c-0.4,0.4-0.8,0.6-1.3,0.6c-0.5,0-0.9-0.2-1.2-0.5c-0.3-0.3-0.5-0.8-0.6-1.4
		l-2.4,0.3c0.1,1.1,0.6,2,1.3,2.7c0.8,0.7,1.8,1,2.9,1c1.2,0,2.3-0.4,3.1-1.2c0.8-0.8,1.3-1.8,1.3-2.9c0-0.8-0.2-1.5-0.7-2
		C161.6,216.5,161,216.2,160.3,216"/>
	<path class="st0" d="M162.7,201.8h-3.1v-1.2h-3.1v-1.2H150l2.5-13.5c0-0.1,0.1-0.2,0.1-0.3c0-0.1,0-0.2-0.1-0.3l-3-13.6
		c0,0,0,0,0,0c0,0,0-0.1,0-0.1l1.5-9.1h1.7v-19.1h-2.3v7.3l-1.4-6.9c0,0,0-0.1,0-0.1c0,0,0-0.1,0-0.1l2.1-13.7c0-0.1,0-0.1,0-0.2
		s0-0.1,0-0.2c0,0,0,0,0-0.1c0,0,0-0.1,0-0.1l-2.6-13.8c0,0,0,0,0,0l1.8-13.6c0-0.1,0.1-0.2,0.1-0.3c0-0.1,0-0.2-0.1-0.3l-2.4-13.6
		c0,0,0,0,0-0.1c0,0,0,0,0,0l1.7-13.9l0-0.8H143l-0.6-13.6h-1.3L140.5,73h-6.6l1.8,14.6l-2.4,13.9c0,0,0,0,0,0.1c0,0,0,0.1,0,0.1
		l1.8,13.8l-2.6,13.9c0,0,0,0,0,0l0,0c0,0,0,0,0,0c0,0.1,0,0.1,0,0.2l2.1,13.9l-1.5,7v-7.3h-2.3v19.1h1.6l1.5,9.1c0,0,0,0,0,0.1
		l-3.1,13.8c0,0,0,0.1,0,0.1c0,0,0,0.1,0,0.1l2.5,13.7h-6.5v1.2h-3.1v1.2h-3.1v1.4h41.9L162.7,201.8L162.7,201.8z M141.7,159.1
		l5.9,11.7h-11.9L141.7,159.1z M141.7,131.2l5.4,11.6h-10.8L141.7,131.2z M146.2,87h-8.8l4.4-11.4L146.2,87z M141.7,103.4l4.9,11.5
		h-9.9L141.7,103.4z M141.7,186.9l6.7,12.4H135L141.7,186.9z M142.8,184.8l2-3.9l3.7-7.3l2.5,11.3H142.8z M142.8,156.9l5.2-11.1
		l2.3,11.1H142.8z M142.8,128.9l1.1-2.6l3.6-8.4l2.1,11H142.8z M142.7,100.9l4.2-10.8l1.9,10.8H142.7z M136.5,90.2l2.8,7.2l1.4,3.6
		h-6L136.5,90.2z M136,117.9l1.4,3.3l3.3,7.6h-6.8L136,117.9z M135.5,145.7l5.2,11.1h-7.5L135.5,145.7z M134.9,173.6l5.7,11.2h-8.2
		L134.9,173.6z"/>
	<path class="st0" d="M175.8,233c1.3,0,2.4-0.2,3.4-0.6c3.1-1.3,5.1-4.5,6.8-7.7c1.2,0.1,2.5,0.2,3.6,0.2c2.8,0,4.9-0.5,6.5-1.6
		c2.8-1.9,4.1-5.3,5.2-8.9c3.7-0.4,7.3-1,9.7-3.4c2.4-2.4,2.9-6,3.4-9.7c3.5-1.1,7-2.4,8.8-5.2c1.9-2.8,1.7-6.4,1.4-10.1
		c3.3-1.8,6.4-3.7,7.7-6.8c1.3-3.1,0.4-6.7-0.6-10.2c2.8-2.4,5.5-4.9,6.2-8.2c0.6-3.2-0.9-6.6-2.6-9.8c2.3-2.9,4.5-5.9,4.5-9.3
		c0-3.4-2.1-6.4-4.4-9.2c1.7-3.3,3.2-6.6,2.5-9.9c-0.7-3.3-3.4-5.8-6.2-8.2c1-3.5,1.9-7.1,0.6-10.2c-1.3-3.1-4.5-5.1-7.7-6.8
		c0.3-3.7,0.5-7.4-1.4-10.1c-1.9-2.8-5.3-4.1-8.8-5.2c-0.4-3.7-1-7.3-3.4-9.7c-2.4-2.4-6-2.9-9.7-3.4c-1.1-3.5-2.4-7-5.2-8.8
		c-1.6-1.1-3.7-1.6-6.5-1.6c-1.2,0-2.4,0.1-3.6,0.2c-1.8-3.2-3.7-6.4-6.8-7.7c-1-0.4-2.2-0.6-3.4-0.6c-2.2,0-4.5,0.6-6.8,1.3
		c-2.4-2.8-4.9-5.5-8.2-6.2c-0.5-0.1-1-0.2-1.6-0.2c-2.7,0-5.5,1.3-8.3,2.7c-2.9-2.3-5.9-4.5-9.3-4.5c-3.4,0-6.4,2.1-9.2,4.4
		c-2.7-1.4-5.5-2.7-8.3-2.7c-0.6,0-1.1,0.1-1.6,0.2c-3.3,0.7-5.8,3.3-8.2,6.2c-2.3-0.7-4.6-1.3-6.7-1.3c-1.3,0-2.4,0.2-3.4,0.6
		c-3.1,1.3-5.1,4.5-6.8,7.7c-1.2-0.1-2.5-0.2-3.7-0.2c-2.8,0-4.9,0.5-6.5,1.6C84.4,62,83.1,65.5,82,69c-3.7,0.4-7.3,1-9.7,3.4
		c-2.4,2.4-2.9,6-3.4,9.7c-3.5,1.1-7,2.4-8.8,5.2c-1.8,2.8-1.7,6.4-1.4,10.1c-3.2,1.8-6.4,3.7-7.7,6.8c-1.3,3.1-0.4,6.7,0.6,10.2
		c-2.8,2.4-5.5,4.9-6.2,8.2c-0.6,3.2,0.9,6.6,2.6,9.8c-2.3,2.9-4.5,5.9-4.5,9.3c0,3.4,2.1,6.4,4.4,9.2c-1.7,3.3-3.2,6.6-2.5,9.9
		c0.7,3.3,3.3,5.8,6.2,8.2c-1,3.5-1.9,7.1-0.6,10.2c1.3,3.1,4.5,5.1,7.7,6.8c-0.3,3.7-0.5,7.4,1.4,10.1c1.9,2.8,5.3,4.1,8.9,5.2
		c0.4,3.7,1,7.3,3.3,9.7c2.4,2.4,6,2.9,9.7,3.4c1.1,3.5,2.4,7,5.2,8.8c1.6,1.1,3.7,1.6,6.5,1.6c1.2,0,2.4-0.1,3.6-0.2
		c1.8,3.2,3.7,6.4,6.8,7.7c1,0.4,2.2,0.6,3.5,0.6c2.2,0,4.5-0.6,6.8-1.3c2.4,2.8,4.9,5.5,8.2,6.2c0.5,0.1,1,0.1,1.6,0.1
		c2.7,0,5.6-1.3,8.3-2.7c2.9,2.3,5.9,4.5,9.3,4.5c3.4,0,6.4-2.1,9.2-4.4c2.7,1.4,5.5,2.7,8.3,2.7c0.6,0,1.1-0.1,1.6-0.2
		c3.3-0.7,5.9-3.4,8.2-6.2C171.4,232.4,173.7,233,175.8,233 M160.9,227.7c-0.7,0-1.4,0.1-2,0.2c-2.9,0.6-5.6,2.7-8.2,4.8
		c-3-1.5-6-3.1-9-3.1c-3,0-6.1,1.5-9,3.1c-2.6-2.1-5.2-4.2-8.1-4.8c-0.6-0.1-1.3-0.2-2-0.2c-2.4,0-4.9,0.7-7.4,1.4
		c-2.1-2.5-4.3-5.1-7.1-6.3c-1.4-0.6-3-0.9-5.2-0.9c-1.4,0-2.9,0.1-4.3,0.3c-1.6-2.9-3.2-5.9-5.7-7.5c-2.5-1.7-5.8-2.1-9.1-2.4
		c-1-3.2-2.1-6.4-4.2-8.5c-2.1-2.1-5.3-3.2-8.5-4.1c-0.4-3.3-0.8-6.7-2.4-9.2c-1.6-2.5-4.6-4.1-7.5-5.7c0.3-3.3,0.5-6.7-0.6-9.5
		c-1.1-2.7-3.7-4.9-6.3-7.1c0.9-3.2,1.8-6.5,1.2-9.4c-0.6-2.9-2.7-5.6-4.8-8.2c1.5-3,3.1-6,3.1-9c0-3-1.5-6.1-3.1-9
		c2.1-2.6,4.2-5.2,4.8-8.1c0.6-2.9-0.3-6.2-1.2-9.4c2.5-2.1,5.1-4.3,6.3-7.1c1.1-2.8,0.9-6.2,0.6-9.5c2.9-1.6,5.9-3.2,7.5-5.7
		c1.7-2.5,2.1-5.8,2.4-9.1c3.2-1,6.4-2.1,8.5-4.2c2.1-2.1,3.2-5.3,4.1-8.5c3.3-0.4,6.7-0.8,9.2-2.4c2.5-1.6,4.1-4.6,5.7-7.5
		c1.4,0.1,2.9,0.2,4.3,0.2c2.1,0,3.8-0.3,5.2-0.9c2.7-1.1,4.9-3.7,7.1-6.3c2.5,0.7,5,1.4,7.4,1.4c0.7,0,1.4-0.1,2-0.2
		c2.9-0.6,5.6-2.7,8.2-4.8c3,1.5,6,3.1,9,3.1c3,0,6.1-1.5,9-3.1c2.6,2.1,5.2,4.2,8.1,4.8c0.6,0.1,1.3,0.2,2,0.2
		c2.4,0,4.9-0.7,7.4-1.4c2.1,2.5,4.3,5.1,7.1,6.3c1.4,0.6,3,0.9,5.1,0.9c1.4,0,2.9-0.1,4.3-0.3c1.6,2.9,3.3,5.9,5.7,7.5
		c2.5,1.7,5.8,2.1,9.1,2.4c1,3.2,2.1,6.4,4.2,8.5c2.1,2.1,5.3,3.1,8.5,4.1c0.4,3.3,0.8,6.7,2.4,9.2c1.6,2.5,4.6,4.1,7.5,5.7
		c-0.3,3.3-0.5,6.7,0.6,9.5c1.1,2.7,3.7,4.9,6.3,7.1c-0.9,3.2-1.8,6.5-1.2,9.4c0.6,2.9,2.7,5.6,4.8,8.2c-1.6,3-3.1,6-3.1,9
		c0,3,1.5,6.1,3.1,9c-2.1,2.6-4.2,5.2-4.7,8.1c-0.6,2.9,0.3,6.2,1.2,9.4c-2.6,2.1-5.1,4.3-6.3,7.1c-1.2,2.8-0.9,6.2-0.6,9.5
		c-2.9,1.6-5.8,3.2-7.5,5.7c-1.7,2.5-2.1,5.8-2.4,9.1c-3.2,1-6.4,2.1-8.5,4.2c-2.1,2.1-3.1,5.3-4.1,8.5c-3.3,0.4-6.7,0.8-9.2,2.4
		c-2.5,1.6-4.1,4.6-5.7,7.5c-1.4-0.1-2.9-0.2-4.3-0.2c-2.1,0-3.8,0.3-5.2,0.9c-2.7,1.1-4.9,3.7-7.1,6.3
		C165.8,228.4,163.3,227.7,160.9,227.7 M178.4,230.3c-0.7,0.3-1.6,0.5-2.6,0.5c-1.6,0-3.3-0.4-5.1-0.9c1.8-2.1,3.6-4,5.5-4.8
		c1.1-0.5,2.5-0.7,4.3-0.7c1,0,2,0.1,3.1,0.2C182.1,227.1,180.6,229.4,178.4,230.3 M195,221.4c-1.2,0.8-2.9,1.2-5.2,1.2
		c-0.8,0-1.6,0-2.5-0.1c1.3-2.4,2.7-4.6,4.5-5.8c1.8-1.2,4.4-1.6,7.1-2C198,217.6,196.9,220.1,195,221.4 M209.5,209.5
		c-1.6,1.6-4.3,2.2-7.3,2.6c0.8-2.6,1.8-5.1,3.3-6.6c1.5-1.5,4-2.5,6.6-3.3C211.7,205.1,211.1,207.8,209.5,209.5 M221.4,194.9
		c-1.3,1.9-3.8,3-6.6,3.9c0.3-2.7,0.7-5.3,2-7.1c1.2-1.8,3.4-3.2,5.8-4.5C222.7,190.3,222.7,193,221.4,194.9 M230.3,178.4
		c-0.9,2.2-3.2,3.7-5.8,5.2c-0.2-2.7-0.3-5.4,0.5-7.4c0.8-2,2.8-3.8,4.9-5.6C230.6,173.6,231.2,176.3,230.3,178.4 M235.7,160.4
		c-0.5,2.3-2.4,4.3-4.6,6.2c-0.7-2.6-1.3-5.2-0.9-7.3c0.4-2.1,1.9-4.2,3.6-6.3C235.1,155.6,236.2,158.2,235.7,160.4 M234.2,148.8
		c-1.2-2.4-2.3-4.9-2.3-7.1c0-2.2,1.1-4.5,2.4-7c1.8,2.3,3.3,4.7,3.3,7C237.6,144.1,236,146.5,234.2,148.8 M235.7,123
		c0.5,2.3-0.6,4.9-1.8,7.5c-1.7-2.2-3.3-4.3-3.7-6.4c-0.4-2.1,0.2-4.7,0.9-7.3C233.3,118.7,235.2,120.7,235.7,123 M230.3,105
		c0.9,2.1,0.4,4.8-0.4,7.7c-2.1-1.8-4-3.6-4.9-5.5c-0.8-2-0.7-4.7-0.5-7.4C227.1,101.3,229.4,102.9,230.3,105 M221.4,88.5
		c1.3,1.9,1.3,4.6,1.1,7.6c-2.4-1.3-4.6-2.7-5.8-4.5c-1.2-1.8-1.6-4.4-2-7.1C217.6,85.5,220.1,86.5,221.4,88.5 M212.1,81.3
		c-2.6-0.8-5.1-1.8-6.6-3.3c-1.5-1.5-2.5-4-3.3-6.6c3,0.4,5.7,0.9,7.3,2.6C211.1,75.6,211.7,78.3,212.1,81.3 M195,62.1
		c1.9,1.3,3,3.8,3.9,6.6c-2.7-0.3-5.3-0.7-7.1-1.9c-1.8-1.2-3.2-3.4-4.5-5.8c0.8-0.1,1.6-0.1,2.4-0.1C192,60.9,193.7,61.3,195,62.1
		 M178.4,53.2c2.2,0.9,3.7,3.2,5.2,5.8c-1.1,0.1-2.1,0.2-3.1,0.2c-1.8,0-3.2-0.2-4.3-0.7c-2-0.8-3.8-2.8-5.5-4.8
		c1.8-0.5,3.6-0.9,5.2-0.9C176.8,52.7,177.7,52.9,178.4,53.2 M160.4,47.8c2.3,0.5,4.3,2.4,6.2,4.7c-2.6,0.7-5.3,1.3-7.3,0.9
		c-2.1-0.4-4.2-1.9-6.3-3.7C155.7,48.3,158.3,47.3,160.4,47.8 M148.8,49.3c-2.4,1.2-4.9,2.3-7.1,2.4c-2.2,0-4.5-1.1-7-2.4
		c2.3-1.8,4.7-3.3,7-3.3C144.1,45.9,146.5,47.5,148.8,49.3 M123,47.8c2.2-0.4,4.9,0.6,7.5,1.9c-2.2,1.7-4.3,3.3-6.4,3.7
		c-2,0.4-4.7-0.2-7.4-0.9C118.7,50.2,120.7,48.2,123,47.8 M105.1,53.2c0.7-0.3,1.6-0.5,2.6-0.5c1.6,0,3.3,0.4,5.1,0.9
		c-1.8,2.1-3.6,4-5.5,4.8c-1.1,0.5-2.5,0.7-4.3,0.7c-1,0-2-0.1-3.1-0.2C101.3,56.4,102.9,54.1,105.1,53.2 M88.5,62.1
		c1.2-0.8,2.9-1.2,5.2-1.2c0.8,0,1.6,0,2.5,0.1c-1.3,2.4-2.7,4.6-4.5,5.8c-1.8,1.2-4.4,1.6-7.1,2C85.5,65.9,86.5,63.4,88.5,62.1
		 M74,74c1.6-1.6,4.3-2.2,7.3-2.6C80.5,74,79.5,76.5,78,78c-1.5,1.5-4,2.5-6.6,3.3C71.8,78.3,72.3,75.6,74,74 M62.1,88.5
		c1.3-1.9,3.8-3,6.6-3.9c-0.3,2.7-0.7,5.3-1.9,7.1c-1.2,1.8-3.5,3.2-5.8,4.5C60.8,93.2,60.8,90.4,62.1,88.5 M53.2,105.1
		c0.9-2.2,3.2-3.7,5.8-5.2c0.2,2.7,0.3,5.4-0.5,7.4c-0.8,2-2.8,3.8-4.8,5.5C52.8,109.9,52.3,107.2,53.2,105.1 M47.8,123
		c0.5-2.3,2.4-4.3,4.7-6.2c0.7,2.6,1.3,5.2,0.9,7.3c-0.4,2.1-1.9,4.2-3.7,6.3C48.3,127.8,47.3,125.3,47.8,123 M49.3,134.7
		c1.2,2.4,2.3,4.9,2.3,7.1c0,2.2-1.1,4.5-2.4,7c-1.8-2.3-3.3-4.7-3.3-7C45.9,139.4,47.5,137,49.3,134.7 M47.8,160.4
		c-0.5-2.3,0.6-4.9,1.9-7.5c1.7,2.2,3.3,4.3,3.7,6.4c0.4,2.1-0.2,4.8-0.9,7.4C50.2,164.7,48.2,162.7,47.8,160.4 M53.2,178.4
		c-0.9-2.1-0.4-4.8,0.4-7.7c2.1,1.8,4,3.6,4.8,5.5c0.8,2,0.8,4.7,0.5,7.4C56.4,182.1,54.1,180.6,53.2,178.4 M62.1,195
		c-1.3-1.9-1.3-4.6-1.1-7.6c2.4,1.3,4.6,2.7,5.8,4.5c1.2,1.8,1.6,4.4,2,7.1C65.9,198,63.4,196.9,62.1,195 M71.4,202.2
		c2.6,0.8,5.1,1.8,6.6,3.3c1.5,1.5,2.5,4,3.3,6.6c-3-0.4-5.7-0.9-7.3-2.6C72.3,207.8,71.8,205.2,71.4,202.2 M88.5,221.4
		c-1.9-1.3-3-3.8-4-6.7c2.7,0.3,5.3,0.7,7.1,2c1.8,1.2,3.2,3.5,4.5,5.8c-0.8,0.1-1.6,0.1-2.4,0.1C91.4,222.6,89.7,222.2,88.5,221.4
		 M105.1,230.3c-2.2-0.9-3.7-3.2-5.2-5.8c1.1-0.1,2.1-0.2,3.1-0.2c1.8,0,3.2,0.2,4.3,0.7c2,0.8,3.8,2.8,5.5,4.8
		c-1.8,0.5-3.6,0.9-5.2,0.9C106.6,230.7,105.8,230.6,105.1,230.3 M123,235.7c-2.3-0.5-4.3-2.4-6.2-4.7c2.7-0.7,5.3-1.3,7.3-0.9
		c2.1,0.4,4.2,1.9,6.3,3.6C127.8,235.1,125.2,236.1,123,235.7 M134.7,234.2c2.4-1.2,4.9-2.3,7.1-2.3c2.2,0,4.5,1.1,7,2.4
		c-2.3,1.8-4.7,3.3-7,3.3C139.4,237.5,137,236,134.7,234.2 M160.4,235.7c-2.2,0.4-4.9-0.6-7.5-1.9c2.2-1.7,4.3-3.3,6.4-3.7
		c2-0.4,4.7,0.2,7.4,0.9C164.8,233.3,162.7,235.2,160.4,235.7"/>
	<polygon class="st0" points="92.8,100.6 84.8,100.6 85.9,100 84,97 82.6,97.9 84.3,100.6 77.2,100.6 77.2,102.3 92.8,102.3 	"/>
	<polygon class="st0" points="93.9,112.6 87.7,112.6 90.7,104.5 88.9,104.5 85.8,112.6 83.3,112.6 83.2,112.5 84,112.1 80.8,104.5 
		78.9,104.5 82.3,112.6 76,112.6 76,114.3 93.9,114.3 	"/>
	<polygon class="st0" points="75.4,134.8 76.8,135.6 79.4,131.2 77.9,130.4 	"/>
	<polygon class="st0" points="86,133.3 87.5,132.4 85.1,128.5 83.7,129.4 	"/>
	<polygon class="st0" points="89.5,130.7 93.1,135.3 94.4,134.2 90.8,129.7 	"/>
	<polygon class="st0" points="92.1,126.4 85.8,126.4 85.8,123.7 93.6,123.7 93.6,122 85.8,122 85.8,119 84.1,119 84.1,122 76,122 
		76,123.7 84.1,123.7 84.1,126.4 77.8,126.4 77.8,128.1 92.1,128.1 	"/>
	<path class="st0" d="M87.8,135.3h-4.9c-0.3-0.1-0.5-0.3-0.5-0.6v-4.2h-1.7v5.2c0,0.3,0.1,1.3,1.2,1.3H89v0H89c1-0.1,2-2,2.1-2.4
		l-1.9-0.8C89,134.4,88.5,135.2,87.8,135.3"/>
	<path class="st0" d="M117,135.1L117,135.1l0-10h5.4v-1.6H117V119h-1.7v4.5h-9.4v1.6h8.8l-0.1,0.1c-2.1,3.1-5.1,5.9-8.8,7.8v2.1
		c1.1-0.5,5.6-2.7,9.3-7.6l0.1-0.2l0,6.5c-0.1,0.7-0.9,1-1.5,1.2l-0.2,0.1l1,2.1C115,137,116.9,136.1,117,135.1"/>
	<path class="st0" d="M176.9,138h1.6v-17.9h-16.4V138h1.6v-1.1h13.2V138z M163.7,121.7h13.2v13.6h-13.2V121.7z"/>
	<polygon class="st0" points="172.4,130.4 173.6,131.9 171.1,131.9 171.1,128.8 175,128.8 175,127.2 171.1,127.2 171.1,124.9 
		175.4,124.9 175.4,123.3 165.3,123.3 165.3,124.9 169.5,124.9 169.5,127.2 165.7,127.2 165.7,128.8 169.5,128.8 169.5,131.9 
		165,131.9 165,133.5 175.7,133.5 175.7,131.9 173.6,129.4 	"/>
	<polygon class="st0" points="207.1,100.4 204.4,97.6 203.3,98.7 205.9,101.5 	"/>
	
		<rect x="197.4" y="98.8" transform="matrix(0.5965 -0.8026 0.8026 0.5965 0.4482 200.1583)" class="st0" width="3.9" height="1.6"/>
	<polygon class="st0" points="195.6,100.6 193.6,97.3 192.2,98.2 194.3,101.5 	"/>
	<path class="st0" d="M189.4,108.3l1,1.5c0.3-0.2,1.1-0.8,2.1-1.9l0.1-0.1v7.7h1.6v-7.2l1.7,2.1l1.3-1l-1.8-2.2l1.7-1.6l-1.1-1.1
		l-1.5,1.4l-0.1,0l-0.1-0.1l0,0c0.6-0.9,1.1-1.7,1.5-2.6h0l0-0.1c0.3-0.6,0.5-1.3,0.5-1.6h-6.5v1.6h4l-0.1,0.1
		C192.2,106.2,189.9,108,189.4,108.3"/>
	<path class="st0" d="M196.6,107.7l1.1,1.4c0.1-0.1,0.4-0.3,0.9-0.7l0.1-0.1v7.1h1.6v-1h3.7v1h1.6v-7.5l0.1,0.1
		c0.4,0.3,0.8,0.6,1.2,0.8l1.1-1.5c-1.1-0.6-3.6-2.4-5.2-5.8c0,0,0.1-0.4,0.2-0.6l-1.9,0C199.6,105.4,197.1,107.4,196.6,107.7
		 M204,112.9h-3.7V109h3.7V112.9z M199.8,107.2c0.8-1,1.6-2.1,2.2-3.3l0.1-0.1l0.1,0.1c0.8,1.3,1.7,2.4,2.7,3.3l0.1,0.1h-5.3
		L199.8,107.2z"/>
	<path class="st0" d="M164.7,106.8l-3.2,1.2v1.8l3.3-1.2v3.6l0,0.1h0c-0.1,0.6-0.6,1.1-1.5,1.5l0.8,1.8c0.4-0.2,2.3-1.1,2.3-2.1
		l0-0.1l0-5.5l2.1-0.8v-1.8l-2.2,0.8v-2.9h2.2v-1.6h-2.2v-4.5h-1.6v4.5h-3.3v1.6h3.3L164.7,106.8z"/>
	<path class="st0" d="M171,106.1L171,106.1l0.2-0.1l0,0.1c0.1,0.2,0.7,2.4,2.4,4.8l0,0.1l0,0c-0.7,0.8-1.4,1.5-2,1.9l-0.1,0.1v2.4
		c1.2-0.8,2.3-1.7,3.3-2.8l0.1-0.1l0.1,0.1c1.2,1.3,2.6,2.3,4.1,3l0-2.1c-1.1-0.5-2.1-1.3-3-2.3l0,0l0-0.1c1-1.5,1.8-3.1,2.2-4.8
		l0-0.2h0c0.1-0.3,0.2-1,0.3-1.6h-1.1v0H171v-4.5h5.1v0.7l0,0.1h0c-0.1,0.6-0.6,1.1-1.5,1.5l0.8,1.8c0.4-0.2,2.2-1.1,2.3-2.1l0-0.1
		v-3.7h-8.3v17.1h1.6L171,106.1L171,106.1z M176.3,106L176.3,106c-0.3,1.2-0.9,2.3-1.6,3.3l-0.1,0.1l-0.1-0.1
		c-0.9-1.4-1.4-2.6-1.6-3.2l0-0.1H176.3z"/>
	<path class="st0" d="M204.5,135.3c-0.3,0-0.6-0.3-1-0.5l-0.1-0.1c-1.2-0.9-2.1-2.5-2.7-4.6l0-0.1h5v-1.6h-5.4l0-0.1
		c-0.2-1-0.2-1.8-0.3-2.3V126h5.6v-5.6l-13.9,0v14.9h0l0,0.1c0.1,1,1.9,1.9,2.3,2.1l0.8-1.8c-0.6-0.3-1.5-0.8-1.5-1.7v-4h5.5l0,0.1
		c0.7,2.9,2,5,3.7,6.2l0,0c0.9,0.6,1.6,0.9,2.2,0.9c1.8,0,2.1-2.5,2.1-3h-1.9C204.9,134.8,204.9,135.3,204.5,135.3 M193.2,128.5V126
		h4.9l0,0.1c0,0.5,0.1,1.3,0.2,2.3l0,0.1H193.2z M193.2,122H204v2.4h-10.7V122z"/>
	<path class="st0" d="M108.2,106.3L108.2,106.3l3.1-0.1v4.6h0l0,0.1c-0.1,0.5-0.5,0.8-2.1,1l0.2,1.5c1.6-0.2,3.2-0.7,3.4-2.6l0-0.1
		l0-0.4h0v-5.8h-4.7v-2.5h6.4l0,0.1c0.2,2.8,0.8,5.2,1.5,7.3c-0.9,1.2-1.9,2.1-2.9,2.9v2.3c1.3-0.8,2.6-2,3.7-3.3l0.1-0.1l0,0.1
		c0.8,1.4,2.3,3.5,4.1,3.5c0.3,0,0.7,0,1-0.1v-2c-0.7,0.2-2.3,0.4-3.9-3.1c1.1-1.5,2.1-3.3,2.9-5.2l-2,0c-0.5,1.1-1,2-1.7,3
		l-0.1,0.1l0-0.2c-0.5-1.6-0.8-3.3-1-5.3l0-0.1h5.2v-1.6l-1.9-3.3h-2l1.9,3.3h-3.4l0-0.1c-0.1-1.2-0.1-2.3,0-3.3h-1.8
		c0,0.5,0,1.7,0,3.3l0,0.1h-8.2v1.5l0,0.1v4.3c0,1.8-0.2,6-2.3,7.7l1.9,1.1C106.3,114.9,108.2,112.2,108.2,106.3"/>
	<polygon class="st0" points="55,78.2 55,78.2 55,78.2 55,78.2 55,78.2 52.2,80.3 52.6,82.8 49,89.5 38.3,83.8 43.2,74.5 42.1,73.9 
		42.1,73.9 39.4,76 39.7,78.4 37.2,83.2 28,78.4 26.4,81.4 47.4,92.5 42.2,102.4 43.2,103 56.1,78.8 	"/>
	<polygon class="st0" points="115.9,32.6 116.1,33.8 125.3,31.9 127,40.2 130.3,39.5 128.6,31.2 132.8,30.4 132.5,29.2 128.4,30 
		125,13.6 121.7,14.3 125,30.7 	"/>
	<path class="st0" d="M122,21.7c1.2-2.7-5.8-3.2-5.8-3.2l-0.3,0.7c3.2,1.8,3.2,2.6,4.3,3.1C121,22.6,121.8,22.3,122,21.7"/>
	<path class="st0" d="M123.2,28.5c1.5-2.6-5.4-3.8-5.4-3.8l-0.4,0.6c3,2.1,2.9,2.9,3.9,3.5C122.1,29.3,122.9,29.1,123.2,28.5"/>
	<path class="st0" d="M108.2,21.7l0.8,3.7l-4.8,1l0.2,1.2l4-0.8c-0.1,1-0.6,7.6-2.3,11.8l0.9,0.4c0,0,2.1-3.2,3.3-7l2.3,11.2
		l3.3-0.7l-2.8-13.6c1.9,1.5,2,2.2,2.9,2.7c0.7,0.4,1.6,0.2,1.9-0.4c1.2-2.2-3.7-3.4-5.1-3.7l-0.3-1.6l4.1-0.8l-0.2-1.2l-4.1,0.8
		l-0.9-4.4c1.4-0.7,2.7-1.5,3.6-2.2l-3.3-1.7c0,0-3.1,3.4-8.3,5.9l0.2,1C103.6,23.2,105.7,22.6,108.2,21.7"/>
	<path class="st0" d="M243,74.6c0.3-0.2,0.8-0.5,1.3-0.9l10,17.9l-4,1.2l0.6,1.2l5.2,1.1l0,0l0,0l0,0l1-0.5l-0.2-3.5l-2.3-1v0
		l-1.6-2.8c1.1,0.3,3.4,1,6.4,1.3l-0.9-4.1c0,0-4.4,1.2-6.6,1L248,78c0.1,0.1,0.3,0.2,0.5,0.2c3.2,0.7,2.2-7.4,2.2-7.4l-0.8-0.2
		c-1.2,3.8-2.1,4.4-2.4,5.7c0,0.2,0,0.5,0,0.7l-2.3-4.1c0.4-0.4,0.9-1,0.9-1l-0.4-0.8l-0.2,0.1c-2.7,0.9-3.9-0.1-5.5,0.8
		c-0.7,0.4-1.3,1.4-0.8,2.4C239.9,75.7,241.4,75.5,243,74.6"/>
	<path class="st0" d="M252,82.6c3,0.6,2.2-7,2.2-7l-0.8-0.2c-1.2,3.6-2.2,4.2-2.4,5.4C250.8,81.8,251.3,82.5,252,82.6"/>
	<path class="st0" d="M231.2,89.9c3.1,4.2,6.2,2.5,6.2,2.5l4.6-2.5l5,9l1-0.6l0,0v0v0l-0.2-3.4l-2.2-1l-2.5-4.5l1.6-0.9l4.8,2.1
		l1-0.6l-7.1-12.7l-1,0.6l5.2,9.4l-4.5-1.7l0,0l-1.6,0.9l-6.1-10.9l-1,0.6l6.1,10.9l-4.6,2.5c-0.5,0.3-0.7-0.1-1.1-0.7
		c-0.3-0.6-1.8-3.6-2.1-4.3l-0.9,0.5C233.5,89.3,231.2,89.9,231.2,89.9"/>
	<path class="st0" d="M172.1,26.9l-4.5-1.1l-0.3,1.2l0.5,0.1c0,3.4,0.8,6.2,1.9,8.6c-4.6,2.8-8.8,3.5-8.8,3.5l-0.3,1.1
		c3.9,0.5,7.5-0.5,10.5-1.9c2.7,4.1,6.1,6.1,6.1,6.1c1-1.9,2.6-2,2.9-2l0.2-0.8c-2.9-1.3-5-3-6.6-4.7c4.4-2.8,7.2-6.3,7.4-6.5l0,0
		l0.3-1.2l-6.1-1.5l0.9-3.8l7.7,1.9l0.3-1.2l0,0l-2.7-2.2l-2.3,1l-2.8-0.7l1.3-5.4l-3.3-0.8l-1.3,5.4l-4.5-1.1l-0.3,1.2l4.5,1.1
		L172.1,26.9z M171.8,34.3c-2-3.2-2.4-6.1-2.5-6.8l7.5,1.9C175.3,31.4,173.6,33,171.8,34.3"/>
	<path class="st0" d="M156,39.2l0.9,0.2l0,0l3.3,0.8l3-12.2c1.5-0.4,2.7-0.8,3.3-1l0.3-1.2c-1.1,0.2-2.1,0.3-3.2,0.4l1.2-5l2.9,0.7
		l0.3-1.2l-2.9-0.7l1.3-5.4l-3.3-0.8l-1.3,5.4l-3.8-0.9l-0.3,1.2l3.8,0.9l-1.5,6.1c-2.9,0.1-4.9,0-4.9,0l0.2,3.2
		c1.5-0.2,2.8-0.5,4.1-0.7l-1.6,6.3l0-0.2c-0.2,1-0.4,1.3-2.3,0.8c-0.8-0.2-1.6-0.5-1.6-0.5l-0.2,0.7C156.3,37.1,156,39.2,156,39.2"
		/>
	<path class="st0" d="M62.3,45.5c0.1-3-6.6-0.9-6.6-0.9l0,0.8c3.6,0.5,3.9,1.3,5.1,1.3C61.6,46.7,62.3,46.2,62.3,45.5"/>
	<path class="st0" d="M57.6,50.6l-0.1,0.8c3.6,0.5,3.9,1.3,5.1,1.4c0.9,0,1.5-0.5,1.5-1.2C64.3,48.6,57.6,50.6,57.6,50.6"/>
	<path class="st0" d="M88.2,46.2l-0.7-0.9l-1.9,1.5l-3.2-4.1l1.9-1.5l-0.7-0.9l-1.9,1.5l-4-5l-2,1.6l-8.1,6.4c0-0.9-0.1-1.8-0.2-2.7
		l10.8-8.5l-0.7-1l-3.4,0.8l-0.7,2.4l0,0l-6.2,4.9c-0.2-1.1-0.4-2.2-0.7-3.3L63,38.8c0,0,2.9,5.2,3.3,10.9l0.9,0
		c0,0,0.1-0.7,0.2-1.9l2.5,3.1l-2.1,1.7l0.7,1l2.1-1.7l3.2,4.1l0,0l0.7,0.9l0,0l0.4,0.5l2.7-2.1l-0.4-0.5l6.3-5
		c0.7,0.9,1,1.6-0.1,2.5c-1.5,1.2-4,3.1-4,3.1L80,56c0,0,3.5-2.3,4.8-0.7c0,0,4.6-3.7,1.5-7.6L88.2,46.2z M69.4,44.7l6.3-5l3.2,4.1
		l-1.4,1.1c0,0,0-0.1,0-0.1c0.1-3-6.6-0.9-6.6-0.9L71,44.6c3.6,0.5,3.9,1.3,5.1,1.4c0.1,0,0.1,0,0.2,0l-3.6,2.8L69.4,44.7z
		 M81.6,49.9C81.6,49.9,81.6,49.9,81.6,49.9c0.1-3-6.5-1-6.5-1L75,49.7c3.6,0.6,3.9,1.3,5.1,1.4c0,0,0.1,0,0.1,0l-3.6,2.8l-3.2-4.1
		l6.3-5l3.2,4l0,0c0,0,0,0,0,0L81.6,49.9z"/>
	<path class="st0" d="M63.6,58.4l0.7,0.9c0,0,2.6-1.2,6.1,3.3c1.1,1.4,2,2.5,2,2.5l1.8-1.4c0,0-4.2-5.4-5.5-7.3
		c-1.2-1.7-4.4-11.5-4.9-13.1L62.8,44c0.8,2.5,3.1,10.2,3,11.9C65.6,57.6,63.6,58.4,63.6,58.4"/>
	<path class="st0" d="M226.1,53.8l-1.5-3.1l-2.5-0.1l0,0l-5.4-4.3c3-2.7,4.9-5.4,5.4-6.2l-3.2-2.5c-1.7,2.6-3.4,4.7-5.2,6.3
		l-8.5-6.8l-0.7,0.9l8.3,6.7c-7.5,6.7-14.8,6.3-18.1,5.6l-0.9,1.1c8.9,4,16.6,0.1,21.7-4.2c-6.8,9.6-3,19.1-3,19.1
		c2.4-1.6,4.3,0.5,4.3,0.5l0.6-0.8c-4.9-7.7-1.2-17.3-0.8-18.3l8.6,6.9L226.1,53.8L226.1,53.8L226.1,53.8z"/>
</g>
</svg>
